<svg id="visual" viewBox="0 0 1920 1080" width="1920" height="1080" xmlns="http://www.w3.org/2000/svg" xmlns:xlink="http://www.w3.org/1999/xlink" version="1.1"><g stroke-width="1" stroke-linejoin="bevel"><path d="M854.3 506L1076.7 522L889.3 366Z" fill="#9a316e" stroke="#9a316e"></path><path d="M1076.7 522L1085.7 378L889.3 366Z" fill="#0a1c31" stroke="#0a1c31"></path><path d="M854.3 506L1064.7 707L1076.7 522Z" fill="#78316d" stroke="#78316d"></path><path d="M854.3 506L814.3 680L1064.7 707Z" fill="#563066" stroke="#563066"></path><path d="M1071.7 194L866.3 201L889.3 366Z" fill="#372c58" stroke="#372c58"></path><path d="M604 359L662 543L854.3 506Z" fill="#00101c" stroke="#00101c"></path><path d="M854.3 506L662 543L814.3 680Z" fill="#563066" stroke="#563066"></path><path d="M1064.7 707L1241 535L1076.7 522Z" fill="#eb4b4a" stroke="#eb4b4a"></path><path d="M1076.7 522L1241 535L1085.7 378Z" fill="#d63a5b" stroke="#d63a5b"></path><path d="M1241 366L1071.7 194L1085.7 378Z" fill="#372c58" stroke="#372c58"></path><path d="M1085.7 378L1071.7 194L889.3 366Z" fill="#1c2546" stroke="#1c2546"></path><path d="M1241 535L1241 366L1085.7 378Z" fill="#eb4b4a" stroke="#eb4b4a"></path><path d="M604 359L854.3 506L889.3 366Z" fill="#1c2546" stroke="#1c2546"></path><path d="M636 195L604 359L889.3 366Z" fill="#ba3267" stroke="#ba3267"></path><path d="M1064.7 707L1244 724L1241 535Z" fill="#0a1c31" stroke="#0a1c31"></path><path d="M1470.3 196L1271 142L1241 366Z" fill="#d63a5b" stroke="#d63a5b"></path><path d="M866.3 201L636 195L889.3 366Z" fill="#372c58" stroke="#372c58"></path><path d="M829.3 0L636 195L866.3 201Z" fill="#9a316e" stroke="#9a316e"></path><path d="M621 748L853.3 881L814.3 680Z" fill="#eb4b4a" stroke="#eb4b4a"></path><path d="M814.3 680L853.3 881L1064.7 707Z" fill="#f96332" stroke="#f96332"></path><path d="M1064.7 707L1104.7 900L1244 724Z" fill="#d63a5b" stroke="#d63a5b"></path><path d="M1495.3 396L1241 366L1241 535Z" fill="#9a316e" stroke="#9a316e"></path><path d="M1241 366L1271 142L1071.7 194Z" fill="#1c2546" stroke="#1c2546"></path><path d="M1071.7 194L1052.7 0L866.3 201Z" fill="#78316d" stroke="#78316d"></path><path d="M662 543L621 748L814.3 680Z" fill="#ba3267" stroke="#ba3267"></path><path d="M430.7 556L621 748L662 543Z" fill="#78316d" stroke="#78316d"></path><path d="M853.3 881L1104.7 900L1064.7 707Z" fill="#9a316e" stroke="#9a316e"></path><path d="M1271 142L1052.7 0L1071.7 194Z" fill="#78316d" stroke="#78316d"></path><path d="M1052.7 0L829.3 0L866.3 201Z" fill="#0a1c31" stroke="#0a1c31"></path><path d="M1530.3 728L1465.3 563L1244 724Z" fill="#563066" stroke="#563066"></path><path d="M1244 724L1465.3 563L1241 535Z" fill="#eb4b4a" stroke="#eb4b4a"></path><path d="M1104.7 900L1259 901L1244 724Z" fill="#eb4b4a" stroke="#eb4b4a"></path><path d="M621 748L630 867L853.3 881Z" fill="#9a316e" stroke="#9a316e"></path><path d="M853.3 881L1077.7 1080L1104.7 900Z" fill="#1c2546" stroke="#1c2546"></path><path d="M1465.3 563L1495.3 396L1241 535Z" fill="#f96332" stroke="#f96332"></path><path d="M408.7 388L430.7 556L604 359Z" fill="#78316d" stroke="#78316d"></path><path d="M604 359L430.7 556L662 543Z" fill="#eb4b4a" stroke="#eb4b4a"></path><path d="M621 748L435.7 874L630 867Z" fill="#0a1c31" stroke="#0a1c31"></path><path d="M1461.3 0L1278 0L1271 142Z" fill="#eb4b4a" stroke="#eb4b4a"></path><path d="M1271 142L1278 0L1052.7 0Z" fill="#9a316e" stroke="#9a316e"></path><path d="M829.3 0L659 0L636 195Z" fill="#0a1c31" stroke="#0a1c31"></path><path d="M405.7 166L408.7 388L604 359Z" fill="#9a316e" stroke="#9a316e"></path><path d="M405.7 166L604 359L636 195Z" fill="#eb4b4a" stroke="#eb4b4a"></path><path d="M1495.3 396L1470.3 196L1241 366Z" fill="#563066" stroke="#563066"></path><path d="M194.3 701L436.7 726L430.7 556Z" fill="#eb4b4a" stroke="#eb4b4a"></path><path d="M430.7 556L436.7 726L621 748Z" fill="#9a316e" stroke="#9a316e"></path><path d="M1509.3 889L1530.3 728L1244 724Z" fill="#d63a5b" stroke="#d63a5b"></path><path d="M1722.7 546L1668.7 365L1495.3 396Z" fill="#d63a5b" stroke="#d63a5b"></path><path d="M648 1080L853.3 881L630 867Z" fill="#f96332" stroke="#f96332"></path><path d="M648 1080L866.3 1080L853.3 881Z" fill="#eb4b4a" stroke="#eb4b4a"></path><path d="M1104.7 900L1077.7 1080L1259 901Z" fill="#563066" stroke="#563066"></path><path d="M866.3 1080L1077.7 1080L853.3 881Z" fill="#eb4b4a" stroke="#eb4b4a"></path><path d="M1259 901L1509.3 889L1244 724Z" fill="#00101c" stroke="#00101c"></path><path d="M463.7 0L405.7 166L636 195Z" fill="#00101c" stroke="#00101c"></path><path d="M1706.7 179L1461.3 0L1470.3 196Z" fill="#f96332" stroke="#f96332"></path><path d="M1470.3 196L1461.3 0L1271 142Z" fill="#f96332" stroke="#f96332"></path><path d="M1668.7 365L1470.3 196L1495.3 396Z" fill="#1c2546" stroke="#1c2546"></path><path d="M188.3 865L435.7 874L436.7 726Z" fill="#78316d" stroke="#78316d"></path><path d="M436.7 726L435.7 874L621 748Z" fill="#d63a5b" stroke="#d63a5b"></path><path d="M659 0L463.7 0L636 195Z" fill="#ba3267" stroke="#ba3267"></path><path d="M1289 1080L1509.3 889L1259 901Z" fill="#78316d" stroke="#78316d"></path><path d="M1077.7 1080L1289 1080L1259 901Z" fill="#9a316e" stroke="#9a316e"></path><path d="M434.7 1080L648 1080L630 867Z" fill="#563066" stroke="#563066"></path><path d="M1722.7 546L1465.3 563L1530.3 728Z" fill="#372c58" stroke="#372c58"></path><path d="M1722.7 546L1495.3 396L1465.3 563Z" fill="#00101c" stroke="#00101c"></path><path d="M405.7 166L237.3 367L408.7 388Z" fill="#00101c" stroke="#00101c"></path><path d="M408.7 388L232.3 505L430.7 556Z" fill="#1c2546" stroke="#1c2546"></path><path d="M183.3 188L237.3 367L405.7 166Z" fill="#ba3267" stroke="#ba3267"></path><path d="M237.3 367L232.3 505L408.7 388Z" fill="#9a316e" stroke="#9a316e"></path><path d="M1669.7 759L1722.7 546L1530.3 728Z" fill="#563066" stroke="#563066"></path><path d="M1723.7 931L1669.7 759L1509.3 889Z" fill="#eb4b4a" stroke="#eb4b4a"></path><path d="M1509.3 889L1669.7 759L1530.3 728Z" fill="#d63a5b" stroke="#d63a5b"></path><path d="M1668.7 365L1706.7 179L1470.3 196Z" fill="#563066" stroke="#563066"></path><path d="M1920 201L1706.7 179L1668.7 365Z" fill="#0a1c31" stroke="#0a1c31"></path><path d="M0 503L194.3 701L232.3 505Z" fill="#372c58" stroke="#372c58"></path><path d="M232.3 505L194.3 701L430.7 556Z" fill="#d63a5b" stroke="#d63a5b"></path><path d="M435.7 874L434.7 1080L630 867Z" fill="#9a316e" stroke="#9a316e"></path><path d="M1289 1080L1500.3 1080L1509.3 889Z" fill="#1c2546" stroke="#1c2546"></path><path d="M195.3 1080L434.7 1080L435.7 874Z" fill="#0a1c31" stroke="#0a1c31"></path><path d="M188.3 0L183.3 188L405.7 166Z" fill="#0a1c31" stroke="#0a1c31"></path><path d="M0 393L0 503L232.3 505Z" fill="#eb4b4a" stroke="#eb4b4a"></path><path d="M0 745L188.3 865L194.3 701Z" fill="#00101c" stroke="#00101c"></path><path d="M194.3 701L188.3 865L436.7 726Z" fill="#f96332" stroke="#f96332"></path><path d="M1500.3 1080L1723.7 931L1509.3 889Z" fill="#372c58" stroke="#372c58"></path><path d="M1920 537L1920 394L1722.7 546Z" fill="#1c2546" stroke="#1c2546"></path><path d="M1920 201L1743.7 0L1706.7 179Z" fill="#eb4b4a" stroke="#eb4b4a"></path><path d="M1706.7 179L1743.7 0L1461.3 0Z" fill="#372c58" stroke="#372c58"></path><path d="M1920 394L1668.7 365L1722.7 546Z" fill="#563066" stroke="#563066"></path><path d="M463.7 0L188.3 0L405.7 166Z" fill="#00101c" stroke="#00101c"></path><path d="M1920 537L1722.7 546L1920 696Z" fill="#0a1c31" stroke="#0a1c31"></path><path d="M1920 696L1722.7 546L1669.7 759Z" fill="#0a1c31" stroke="#0a1c31"></path><path d="M0 393L232.3 505L237.3 367Z" fill="#563066" stroke="#563066"></path><path d="M0 393L237.3 367L183.3 188Z" fill="#f96332" stroke="#f96332"></path><path d="M0 170L0 393L183.3 188Z" fill="#9a316e" stroke="#9a316e"></path><path d="M1920 909L1920 696L1669.7 759Z" fill="#ba3267" stroke="#ba3267"></path><path d="M1920 394L1920 201L1668.7 365Z" fill="#563066" stroke="#563066"></path><path d="M1500.3 1080L1735.7 1080L1723.7 931Z" fill="#ba3267" stroke="#ba3267"></path><path d="M1723.7 931L1920 909L1669.7 759Z" fill="#1c2546" stroke="#1c2546"></path><path d="M188.3 865L195.3 1080L435.7 874Z" fill="#563066" stroke="#563066"></path><path d="M0 885L195.3 1080L188.3 865Z" fill="#372c58" stroke="#372c58"></path><path d="M0 503L0 745L194.3 701Z" fill="#0a1c31" stroke="#0a1c31"></path><path d="M188.3 0L0 170L183.3 188Z" fill="#1c2546" stroke="#1c2546"></path><path d="M1920 1080L1920 909L1723.7 931Z" fill="#78316d" stroke="#78316d"></path><path d="M1920 201L1920 0L1743.7 0Z" fill="#0a1c31" stroke="#0a1c31"></path><path d="M0 745L0 885L188.3 865Z" fill="#0a1c31" stroke="#0a1c31"></path><path d="M188.3 0L0 0L0 170Z" fill="#372c58" stroke="#372c58"></path><path d="M1735.7 1080L1920 1080L1723.7 931Z" fill="#563066" stroke="#563066"></path><path d="M0 885L0 1080L195.3 1080Z" fill="#1c2546" stroke="#1c2546"></path></g></svg>